<?xml version="1.0" standalone="no"?>
<!DOCTYPE svg PUBLIC "-//W3C//DTD SVG 20010904//EN"
 "http://www.w3.org/TR/2001/REC-SVG-20010904/DTD/svg10.dtd">
<svg version="1.0" xmlns="http://www.w3.org/2000/svg"
 width="500.000000pt" height="500.000000pt" viewBox="0 0 500.000000 500.000000"
 preserveAspectRatio="xMidYMid meet">
<metadata>
Created by potrace 1.14, written by Peter Selinger 2001-2017
</metadata>
<g transform="translate(0.000000,500.000000) scale(0.100000,-0.100000)"
fill="#000000" stroke="none">
<path d="M2371 4742 c-98 -37 -193 -158 -207 -262 l-6 -47 -112 -5 c-128 -6
-178 -23 -245 -83 -55 -50 -83 -99 -97 -165 l-11 -55 -214 -6 c-118 -3 -230
-11 -250 -17 -149 -49 -274 -174 -319 -321 -20 -62 -20 -101 -20 -1607 0
-1537 0 -1545 21 -1607 52 -156 174 -272 338 -321 49 -14 180 -16 1251 -16
1071 0 1202 2 1251 16 164 49 292 171 340 325 18 59 19 117 19 1607 l0 1547
-23 65 c-13 36 -35 83 -49 105 -56 88 -166 174 -264 206 -23 7 -124 15 -254
18 l-214 6 -8 44 c-11 65 -44 125 -94 171 -70 65 -120 82 -250 88 l-112 5 -7
46 c-15 110 -110 228 -211 264 -64 22 -192 22 -253 -1z m200 -131 c64 -65 20
-171 -71 -171 -33 0 -48 6 -71 29 -64 65 -20 171 71 171 33 0 48 -6 71 -29z
m-870 -756 c8 -79 46 -152 106 -204 89 -76 76 -75 641 -79 527 -4 610 1 683
38 96 50 158 139 168 245 l6 60 195 0 c178 0 199 -2 241 -22 66 -30 123 -90
148 -157 l21 -57 0 -1504 c0 -1493 0 -1505 -21 -1559 -23 -64 -105 -146 -166
-168 -56 -19 -2390 -19 -2446 0 -61 22 -143 104 -167 168 -20 55 -20 61 -18
1577 l3 1522 29 53 c28 51 73 94 124 121 43 23 107 29 277 28 l170 -2 6 -60z"/>
<path d="M1350 3285 l0 -65 1150 0 1150 0 0 65 0 65 -1150 0 -1150 0 0 -65z"/>
<path d="M1352 2733 l3 -68 1145 0 1145 0 3 68 3 67 -1151 0 -1151 0 3 -67z"/>
<path d="M1350 2175 l0 -65 1150 0 1150 0 0 65 0 65 -1150 0 -1150 0 0 -65z"/>
<path d="M1350 1625 l0 -65 1150 0 1150 0 0 65 0 65 -1150 0 -1150 0 0 -65z"/>
<path d="M1357 1133 c-4 -3 -7 -35 -7 -70 l0 -63 1150 0 1151 0 -3 68 -3 67
-1141 3 c-627 1 -1144 -1 -1147 -5z"/>
</g>
</svg>
